<?xml version="1.0" encoding="UTF-8" standalone="no"?>
<!-- Created with Inkscape (http://www.inkscape.org/) -->

<svg
   xmlns:dc="http://purl.org/dc/elements/1.1/"
   xmlns:cc="http://creativecommons.org/ns#"
   xmlns:rdf="http://www.w3.org/1999/02/22-rdf-syntax-ns#"
   xmlns:svg="http://www.w3.org/2000/svg"
   xmlns="http://www.w3.org/2000/svg"
   xmlns:sodipodi="http://sodipodi.sourceforge.net/DTD/sodipodi-0.dtd"
   xmlns:inkscape="http://www.inkscape.org/namespaces/inkscape"
   width="99.999992"
   height="99.999992"
   viewBox="0 0 99.99999 99.99999"
   id="svg2"
   version="1.1"
   inkscape:version="0.91 r13725"
   sodipodi:docname="AllOutDefense.svg"
   inkscape:export-filename="C:\DeshinData\CodeProjects\TBTRoguelite\TBT Roguelite\Assets\Sprites\SkillIcons\AllOutDefense.png"
   inkscape:export-xdpi="90"
   inkscape:export-ydpi="90">
  <defs
     id="defs4" />
  <sodipodi:namedview
     id="base"
     pagecolor="#ffffff"
     bordercolor="#666666"
     borderopacity="1.0"
     inkscape:pageopacity="0.0"
     inkscape:pageshadow="2"
     inkscape:zoom="2.5100002"
     inkscape:cx="-109.5817"
     inkscape:cy="80.314556"
     inkscape:document-units="px"
     inkscape:current-layer="layer1"
     showgrid="false"
     inkscape:window-width="2194"
     inkscape:window-height="1171"
     inkscape:window-x="-8"
     inkscape:window-y="-8"
     inkscape:window-maximized="1"
     fit-margin-top="0"
     fit-margin-left="0"
     fit-margin-right="0"
     fit-margin-bottom="0"
     units="px" />
  <metadata
     id="metadata7">
    <rdf:RDF>
      <cc:Work
         rdf:about="">
        <dc:format>image/svg+xml</dc:format>
        <dc:type
           rdf:resource="http://purl.org/dc/dcmitype/StillImage" />
        <dc:title />
      </cc:Work>
    </rdf:RDF>
  </metadata>
  <g
     inkscape:label="Layer 1"
     inkscape:groupmode="layer"
     id="layer1"
     transform="translate(0,-952.36221)">
    <rect
       style="fill:#ffffff;fill-opacity:1;stroke:#ff0000;stroke-width:3.30035901;stroke-miterlimit:4;stroke-dasharray:none;stroke-opacity:1"
       id="rect4138"
       width="96.699638"
       height="96.699638"
       x="1.6501795"
       y="954.01239"
       rx="19.339928"
       ry="19.339928" />
    <g
       transform="matrix(0.58477934,0,0,0.47336869,-60.586777,529.01679)"
       id="g4148">
      <g
         id="g4187"
         transform="translate(48.076613,-101.73696)">
        <path
           style="fill:none;fill-rule:evenodd;stroke:#000000;stroke-width:1.01779139px;stroke-linecap:butt;stroke-linejoin:miter;stroke-opacity:1"
           d="m 141.12752,1185.5824 c 51.69779,-33.4552 50.88689,-54.4255 50.88689,-76.3384 l 0,-76.3383 c 0,0 -38.55993,-4.2697 -50.88689,-14.6616 -11.93461,10.7194 -50.886893,14.6616 -50.886893,14.6616 l 0,76.3383 c 0,20.6853 -0.951654,42.8065 50.886893,76.3384 z"
           id="path12357"
           inkscape:connector-curvature="0"
           sodipodi:nodetypes="ccccccc" />
      </g>
    </g>
    <g
       id="g12391"
       transform="matrix(0,0.39217367,-0.39217367,0,408.24239,1062.7182)">
      <path
         id="path12380"
         transform="translate(0,952.36221)"
         d="m -144.22266,-102.39062 a 20.318724,46.414337 0 0 0 -20.31836,46.414058 20.318724,46.414337 0 0 0 5.26563,31.097656 27.490038,11.752987 0 0 1 14.6543,-1.814453 27.490038,11.752987 0 0 1 15.37109,2.013671 20.318724,46.414337 0 0 0 5.3457,-31.296874 20.318724,46.414337 0 0 0 -20.31836,-46.414058 z"
         style="fill:none;fill-opacity:1;stroke:#000000;stroke-width:2;stroke-miterlimit:4;stroke-dasharray:none;stroke-opacity:1"
         inkscape:connector-curvature="0" />
      <path
         inkscape:connector-curvature="0"
         id="rect12386"
         d="m -159.00846,943.95235 0,1.38275 c 0,10.75944 6.15084,19.42132 13.78976,19.42132 7.63893,0 13.78798,-8.66188 13.78798,-19.42132 l 0,-1.38275 -27.57774,0 z"
         style="fill:none;fill-opacity:1;stroke:#000000;stroke-width:1.9127115;stroke-miterlimit:4;stroke-dasharray:none;stroke-opacity:1" />
    </g>
    <g
       id="g12418"
       transform="matrix(0.6719367,0,0,0.6719367,25.100304,286.98539)">
      <path
         inkscape:connector-curvature="0"
         id="path12395"
         d="M 0.35355342,1032.0883 20.27387,1052.0086"
         style="fill:none;fill-rule:evenodd;stroke:#000000;stroke-width:1px;stroke-linecap:butt;stroke-linejoin:miter;stroke-opacity:1" />
      <path
         inkscape:connector-curvature="0"
         id="path12395-1"
         d="m 30.353553,1032.0883 19.920317,19.9203"
         style="fill:none;fill-rule:evenodd;stroke:#000000;stroke-width:1px;stroke-linecap:butt;stroke-linejoin:miter;stroke-opacity:1" />
      <path
         inkscape:connector-curvature="0"
         id="path12395-18"
         d="m 15.353553,1032.0884 19.9199,19.9203"
         style="fill:none;fill-rule:evenodd;stroke:#000000;stroke-width:0.99998975px;stroke-linecap:butt;stroke-linejoin:miter;stroke-opacity:1" />
    </g>
  </g>
</svg>
