<?xml version="1.0" encoding="UTF-8" standalone="no"?>
<!-- Created with Inkscape (http://www.inkscape.org/) -->

<svg
   xmlns:dc="http://purl.org/dc/elements/1.1/"
   xmlns:cc="http://creativecommons.org/ns#"
   xmlns:rdf="http://www.w3.org/1999/02/22-rdf-syntax-ns#"
   xmlns:svg="http://www.w3.org/2000/svg"
   xmlns="http://www.w3.org/2000/svg"
   xmlns:sodipodi="http://sodipodi.sourceforge.net/DTD/sodipodi-0.dtd"
   xmlns:inkscape="http://www.inkscape.org/namespaces/inkscape"
   width="99.999992"
   height="99.999992"
   viewBox="0 0 99.99999 99.99999"
   id="svg2"
   version="1.1"
   inkscape:version="0.91 r13725"
   sodipodi:docname="StrengthChargingIcon.svg"
   inkscape:export-filename="C:\DeshinData\CodeProjects\TBTRoguelite\TBT Roguelite\Assets\Sprites\SkillIcons\StrengthReserves.png"
   inkscape:export-xdpi="90"
   inkscape:export-ydpi="90">
  <defs
     id="defs4" />
  <sodipodi:namedview
     id="base"
     pagecolor="#ffffff"
     bordercolor="#666666"
     borderopacity="1.0"
     inkscape:pageopacity="0.0"
     inkscape:pageshadow="2"
     inkscape:zoom="2.5600001"
     inkscape:cx="-7.6499622"
     inkscape:cy="78.165982"
     inkscape:document-units="px"
     inkscape:current-layer="layer1"
     showgrid="false"
     inkscape:window-width="2194"
     inkscape:window-height="1171"
     inkscape:window-x="-8"
     inkscape:window-y="-8"
     inkscape:window-maximized="1"
     fit-margin-top="0"
     fit-margin-left="0"
     fit-margin-right="0"
     fit-margin-bottom="0"
     units="px" />
  <metadata
     id="metadata7">
    <rdf:RDF>
      <cc:Work
         rdf:about="">
        <dc:format>image/svg+xml</dc:format>
        <dc:type
           rdf:resource="http://purl.org/dc/dcmitype/StillImage" />
        <dc:title />
      </cc:Work>
    </rdf:RDF>
  </metadata>
  <g
     inkscape:label="Layer 1"
     inkscape:groupmode="layer"
     id="layer1"
     transform="translate(0,-952.36221)">
    <rect
       style="fill:#ffffff;fill-opacity:1;stroke:#000000;stroke-width:3.30035901;stroke-miterlimit:4;stroke-dasharray:none;stroke-opacity:1"
       id="rect4138"
       width="96.699638"
       height="96.699638"
       x="1.6501795"
       y="954.01239"
       rx="19.339928"
       ry="19.339928" />
    <g
       transform="matrix(0.98257134,0,0,0.98246785,21.965144,-3.5148102)"
       id="g4148">
      <path
         style="fill:none;fill-opacity:0.35838132;stroke:#000000;stroke-width:1.78319049;stroke-miterlimit:4;stroke-dasharray:none;stroke-opacity:1"
         d="m 53.144186,983.38441 a 8.8226456,9.2879733 0 0 0 -8.822646,9.28798 8.8226456,9.2879733 0 0 0 1.25839,4.76008 13.930495,32.043509 0 0 0 -7.527115,28.44443 13.930495,32.043509 0 0 0 2.776814,19.1402 32.504484,9.5201737 0 0 0 -14.617731,-1.0287 32.504484,9.5201737 0 0 0 -32.5044874,9.5202 32.504484,9.5201737 0 0 0 32.5044874,9.5202 32.504484,9.5201737 0 0 0 32.420903,-9.0314 13.930495,32.043509 0 0 0 7.281005,-28.1205 13.930495,32.043509 0 0 0 -6.349983,-26.84921 8.8226456,9.2879733 0 0 0 2.40301,-6.3553 8.8226456,9.2879733 0 0 0 -8.822647,-9.28798 z"
         id="path4181"
         inkscape:connector-curvature="0" />
      <g
         id="g4192"
         transform="translate(236.94207,62.024928)">
        <path
           sodipodi:nodetypes="cc"
           inkscape:connector-curvature="0"
           id="path4188"
           d="m -225.90231,922.0424 0,50.89225"
           style="fill:none;fill-rule:evenodd;stroke:#000000;stroke-width:1.01779139px;stroke-linecap:butt;stroke-linejoin:miter;stroke-opacity:1" />
        <path
           sodipodi:nodetypes="cc"
           inkscape:connector-curvature="0"
           id="path4190"
           d="m -251.34576,947.48852 50.88689,0"
           style="fill:none;fill-rule:evenodd;stroke:#000000;stroke-width:1.01779139px;stroke-linecap:butt;stroke-linejoin:miter;stroke-opacity:1" />
      </g>
    </g>
  </g>
</svg>
