<?xml version="1.0" encoding="UTF-8" standalone="no"?>
<!-- Created with Inkscape (http://www.inkscape.org/) -->

<svg
   xmlns:dc="http://purl.org/dc/elements/1.1/"
   xmlns:cc="http://creativecommons.org/ns#"
   xmlns:rdf="http://www.w3.org/1999/02/22-rdf-syntax-ns#"
   xmlns:svg="http://www.w3.org/2000/svg"
   xmlns="http://www.w3.org/2000/svg"
   xmlns:sodipodi="http://sodipodi.sourceforge.net/DTD/sodipodi-0.dtd"
   xmlns:inkscape="http://www.inkscape.org/namespaces/inkscape"
   width="99.999992"
   height="99.999992"
   viewBox="0 0 99.99999 99.99999"
   id="svg2"
   version="1.1"
   inkscape:version="0.91 r13725"
   sodipodi:docname="ToughGuy3.svg"
   inkscape:export-filename="C:\DeshinData\CodeProjects\TBTRoguelite\TBT Roguelite\Assets\Sprites\SkillIcons\ToughGuy3.png"
   inkscape:export-xdpi="90"
   inkscape:export-ydpi="90">
  <defs
     id="defs4" />
  <sodipodi:namedview
     id="base"
     pagecolor="#ffffff"
     bordercolor="#666666"
     borderopacity="1.0"
     inkscape:pageopacity="0.0"
     inkscape:pageshadow="2"
     inkscape:zoom="2.5100002"
     inkscape:cx="-144.55093"
     inkscape:cy="12.579739"
     inkscape:document-units="px"
     inkscape:current-layer="layer1"
     showgrid="false"
     inkscape:window-width="2194"
     inkscape:window-height="1171"
     inkscape:window-x="-8"
     inkscape:window-y="-8"
     inkscape:window-maximized="1"
     fit-margin-top="0"
     fit-margin-left="0"
     fit-margin-right="0"
     fit-margin-bottom="0"
     units="px" />
  <metadata
     id="metadata7">
    <rdf:RDF>
      <cc:Work
         rdf:about="">
        <dc:format>image/svg+xml</dc:format>
        <dc:type
           rdf:resource="http://purl.org/dc/dcmitype/StillImage" />
        <dc:title />
      </cc:Work>
    </rdf:RDF>
  </metadata>
  <g
     inkscape:label="Layer 1"
     inkscape:groupmode="layer"
     id="layer1"
     transform="translate(0,-952.36221)">
    <rect
       style="fill:#ffffff;fill-opacity:1;stroke:#000000;stroke-width:3.30035901;stroke-miterlimit:4;stroke-dasharray:none;stroke-opacity:1"
       id="rect4138"
       width="96.699638"
       height="96.699638"
       x="1.6501795"
       y="954.01239"
       rx="19.339928"
       ry="19.339928" />
    <path
       style="fill:none;fill-rule:evenodd;stroke:#000000;stroke-width:0.77871209px;stroke-linecap:butt;stroke-linejoin:miter;stroke-opacity:1"
       d="m 49.999994,1041.4131 c -22.409214,-21.6518 -39.610638,-35.8324 -39.610638,-59.92388 0,-11.89329 7.81166,-19.13602 19.805324,-19.13602 12.309279,0 19.805314,7.51801 19.805314,19.13602 0,-11.73615 3.23514,-19.13602 19.805325,-19.13602 12.467102,0 19.805325,7.70019 19.805325,19.13602 0,24.24408 -17.038655,38.11478 -39.61065,59.92388 z"
       id="path13046"
       inkscape:connector-curvature="0"
       sodipodi:nodetypes="csscssc" />
    <path
       style="fill:none;fill-rule:evenodd;stroke:#000000;stroke-width:0.58403409px;stroke-linecap:butt;stroke-linejoin:miter;stroke-opacity:1"
       d="m 49.999995,1036.9561 c -16.80691,-16.2389 -29.707978,-26.8743 -29.707978,-44.9429 0,-8.9199 5.858745,-14.352 14.853993,-14.352 9.231959,0 14.853985,5.6385 14.853985,14.352 0,-8.802 2.426355,-14.352 14.853994,-14.352 9.350327,0 14.853994,5.7752 14.853994,14.352 0,18.183 -12.778991,28.586 -29.707988,44.9429 z"
       id="path13046-2"
       inkscape:connector-curvature="0"
       sodipodi:nodetypes="csscssc" />
    <path
       style="fill:none;fill-rule:evenodd;stroke:#000000;stroke-width:0.38935608px;stroke-linecap:butt;stroke-linejoin:miter;stroke-opacity:1"
       d="m 49.999997,1032.0915 c -11.204607,-10.8259 -19.805319,-17.9162 -19.805319,-29.9619 0,-5.9466 3.90583,-9.56802 9.902662,-9.56802 6.15464,0 9.902657,3.75902 9.902657,9.56802 0,-5.868 1.61757,-9.56802 9.902663,-9.56802 6.233549,0 9.902662,3.85012 9.902662,9.56802 0,12.122 -8.519327,19.0573 -19.805325,29.9619 z"
       id="path13046-2-7"
       inkscape:connector-curvature="0"
       sodipodi:nodetypes="csscssc" />
  </g>
</svg>
